HIERARCHY
ROOT root
{
	OFFSET 0.000000 0.000000 0.000000
	CHANNELS 6 Xposition Yposition Zposition Zrotation Yrotation Xrotation
	JOINT lhip
	{
		OFFSET 0.058581 -0.082280 -0.017664
		CHANNELS 3 Zrotation Yrotation Xrotation
		JOINT lknee
		{
			OFFSET 0.043451 -0.386469 0.008037
			CHANNELS 3 Zrotation Yrotation Xrotation
			JOINT lankle
			{
				OFFSET -0.014790 -0.426874 -0.037428
				CHANNELS 3 Zrotation Yrotation Xrotation
				JOINT ltoe
				{
					OFFSET 0.041054 -0.060286 0.122042
					CHANNELS 3 Zrotation Yrotation Xrotation
					End Site
					{
						OFFSET 0.000000 0.000000 0.000000
					}
				}
			}
		}
	}
	JOINT rhip
	{
		OFFSET -0.060310 -0.090513 -0.013543
		CHANNELS 3 Zrotation Yrotation Xrotation
		JOINT rknee
		{
			OFFSET -0.043257 -0.383688 -0.004843
			CHANNELS 3 Zrotation Yrotation Xrotation
			JOINT rankle
			{
				OFFSET 0.019056 -0.420046 -0.034562
				CHANNELS 3 Zrotation Yrotation Xrotation
				JOINT rtoe
				{
					OFFSET -0.034840 -0.062106 0.130323
					CHANNELS 3 Zrotation Yrotation Xrotation
					End Site
					{
						OFFSET 0.000000 0.000000 0.000000
					}
				}
			}
		}
	}
	JOINT lowerback
	{
		OFFSET 0.004439 0.124404 -0.038385
		CHANNELS 3 Zrotation Yrotation Xrotation
		JOINT upperback
		{
			OFFSET 0.004488 0.137956 0.026820
			CHANNELS 3 Zrotation Yrotation Xrotation
			JOINT chest
			{
				OFFSET -0.002265 0.056032 0.002855
				CHANNELS 3 Zrotation Yrotation Xrotation
				JOINT lowerneck
				{
					OFFSET -0.013390 0.211636 -0.033468
					CHANNELS 3 Zrotation Yrotation Xrotation
					JOINT upperneck
					{
						OFFSET 0.010113 0.088937 0.050410
						CHANNELS 3 Zrotation Yrotation Xrotation
						End Site
						{
							OFFSET 0.000000 0.000000 0.000000
						}
					}
				}
				JOINT lclavicle
				{
					OFFSET 0.071702 0.114000 -0.018898
					CHANNELS 3 Zrotation Yrotation Xrotation
					JOINT lshoulder
					{
						OFFSET 0.122921 0.045205 -0.019046
						CHANNELS 3 Zrotation Yrotation Xrotation
						JOINT lelbow
						{
							OFFSET 0.255332 -0.015649 -0.022946
							CHANNELS 3 Zrotation Yrotation Xrotation
							JOINT lwrist
							{
								OFFSET 0.265709 0.012698 -0.007375
								CHANNELS 3 Zrotation Yrotation Xrotation
								End Site
								{
									OFFSET 0.000000 0.000000 0.000000
								}
							}
						}
					}
				}
				JOINT rclavicle
				{
					OFFSET -0.082954 0.112472 -0.023707
					CHANNELS 3 Zrotation Yrotation Xrotation
					JOINT rshoulder
					{
						OFFSET -0.113228 0.046853 -0.008472
						CHANNELS 3 Zrotation Yrotation Xrotation
						JOINT relbow
						{
							OFFSET -0.260127 -0.014369 -0.031269
							CHANNELS 3 Zrotation Yrotation Xrotation
							JOINT rwrist
							{
								OFFSET -0.269108 0.006794 -0.006027
								CHANNELS 3 Zrotation Yrotation Xrotation
								End Site
								{
									OFFSET 0.000000 0.000000 0.000000
								}
							}
						}
					}
				}
			}
		}
	}
}
MOTION
Frames: 13
Frame Time: 0.033333
0.090880 1.157294 1.001837 -92.144751 -9.950022 90.218713 -4.142815 -0.227395 -6.833409 -5.946151 -5.316445 11.849862 1.373135 14.759850 -3.383382 0.000000 -0.000000 0.000000 -3.404440 7.209450 -16.681379 4.419148 1.766918 32.319115 2.902710 -7.832442 -17.685851 0.000000 -0.000000 0.000000 0.962285 -1.972379 16.375496 3.590232 -0.384754 -4.167725 0.709840 -1.697273 -0.090503 2.449913 1.266340 0.321167 0.527946 -0.748717 8.112722 -26.182559 5.188085 0.868167 -47.975526 -3.208180 10.184748 3.599915 -38.408822 13.500493 -0.754610 -10.055874 3.455859 24.152258 -4.536911 0.975406 46.050158 -6.481418 13.656589 -9.776355 35.423699 7.386340 6.114288 3.368014 1.517251 
0.091387 1.154386 1.006398 -92.937759 -8.979080 91.546866 -2.689475 0.945157 -6.311962 -6.260450 -4.989112 8.591369 0.459031 13.745492 -2.751708 0.000000 -0.000000 0.000000 -2.724809 6.468228 -17.238009 4.179323 2.265340 30.443649 2.931862 -7.200644 -17.151558 0.000000 -0.000000 0.000000 0.383485 -2.025989 15.983222 4.153484 0.015287 -4.457924 1.459459 -1.558029 0.020807 2.802806 1.094710 0.238237 0.833045 -1.044461 7.394847 -24.870108 6.990858 1.071749 -48.444204 -2.215975 10.389708 1.226207 -42.602261 16.076688 0.040327 -9.500016 1.429565 23.341687 -5.259603 1.155713 45.569955 -6.316170 13.488952 -9.800475 36.657015 6.929391 5.925546 3.453127 0.888254 
0.092892 1.152431 1.006495 -93.689962 -8.309181 92.851414 -1.838135 2.203297 -6.478840 -6.447128 -5.308935 6.613527 0.543432 13.125428 -2.602223 0.000000 -0.000000 0.000000 -2.119537 5.277795 -18.857501 3.769281 2.704515 30.470778 2.938693 -6.365142 -16.848467 0.000000 -0.000000 0.000000 -0.402037 -1.970804 15.421395 4.628310 0.304822 -4.309296 2.125811 -1.870070 0.534601 3.136752 1.066579 -0.655121 1.074032 -1.298187 6.870577 -23.698749 8.678302 1.208579 -49.310298 -1.425610 10.537062 -0.599880 -46.220493 18.378944 0.464557 -8.672543 -0.260415 22.982738 -5.792551 0.852175 45.004303 -5.730864 13.415088 -9.587009 37.477190 7.508909 6.668136 3.499025 1.905824 
0.095222 1.151453 1.003937 -94.411154 -7.820860 93.826000 -1.342766 3.026004 -7.632942 -6.698230 -5.300776 6.891512 1.312654 13.168557 -3.138890 0.000000 -0.000000 0.000000 -1.668324 5.313287 -21.294666 3.178431 2.200468 32.525964 3.035709 -6.679292 -16.490897 0.000000 -0.000000 0.000000 -1.392256 -1.978571 15.957206 5.128516 0.751615 -4.784951 2.699659 -2.265349 1.203975 3.358199 1.206368 -2.341445 1.232071 -1.198382 6.544746 -22.934291 10.236674 1.371849 -50.341625 -0.908870 10.742472 -2.261055 -48.701348 19.919816 2.989421 -8.919802 -2.861891 22.932068 -6.409780 -0.042305 44.902863 -5.314296 13.657451 -10.643588 37.813141 5.908648 3.513048 3.921585 3.108360 
0.098641 1.149605 1.000133 -95.021374 -7.560368 94.602681 -1.239274 2.342111 -10.369557 -6.989276 -4.112344 10.322254 2.466956 13.728702 -4.661758 0.000000 -0.000000 0.000000 -1.848977 6.382869 -24.870016 2.585813 -0.364015 36.495287 3.611831 -8.908089 -16.032096 0.000000 -0.000000 0.000000 -1.508151 -1.936860 17.185563 5.002196 0.914004 -5.003683 2.632575 -2.578830 1.161432 3.677769 0.998998 -4.010749 1.389845 -0.733016 6.159208 -22.769353 10.904207 1.994022 -51.535711 -0.571330 10.592844 -1.940388 -50.108695 18.372622 1.594608 -8.840428 -4.286882 23.143236 -6.668799 -0.295583 45.672126 -4.827191 13.271749 -12.231169 37.794408 3.005073 4.940945 3.986254 3.224075 
0.102134 1.148768 0.993515 -95.885255 -7.406255 95.158970 -0.729199 2.075239 -14.842070 -7.955222 -1.964506 17.534353 3.322367 13.925672 -7.297618 0.000000 -0.000000 0.000000 -1.877139 7.024886 -29.127463 1.472314 -3.776375 42.175729 4.229069 -10.981119 -15.918899 0.000000 -0.000000 0.000000 -1.715378 -2.058304 19.375636 4.757759 1.189079 -5.941408 2.374359 -2.556363 1.326765 3.831770 0.406140 -5.654193 1.614283 -0.090212 5.270108 -23.375329 11.252058 2.214370 -52.766666 -0.939908 9.695236 -0.031350 -49.391734 15.307622 2.738758 -8.898779 -4.037968 23.385867 -6.592366 -0.219944 46.760550 -4.060276 12.554190 -12.797379 37.227659 1.077045 4.941470 4.076357 3.695496 
0.105976 1.149808 0.981996 -96.974465 -7.415525 95.287129 0.021166 2.330326 -20.499084 -8.674052 0.320242 27.836459 2.643891 13.435801 -10.080700 0.000000 -0.000000 0.000000 -1.357746 7.011925 -32.960323 -0.253760 -6.316450 48.344955 4.090945 -11.456425 -15.994159 0.000000 -0.000000 0.000000 -2.068970 -1.951691 22.866626 4.091303 1.376249 -7.579195 2.236599 -2.267313 1.103053 3.530494 0.140392 -6.570810 2.486534 0.278211 3.158735 -24.128406 10.630031 1.890982 -53.650685 -1.235216 8.277038 2.258741 -47.547934 12.048038 7.754946 -8.674702 -3.289936 22.989898 -6.223699 -0.030960 48.472160 -3.486573 11.801482 -11.307139 36.781583 2.722380 2.579681 4.259157 3.660268 
0.109956 1.151910 0.963302 -97.975068 -7.500490 95.600418 1.593902 1.551031 -26.443472 -9.242082 4.094383 38.384406 2.377207 12.406484 -12.780646 0.000000 -0.000000 0.000000 -1.004988 7.118698 -36.543881 -2.103046 -7.415472 54.111752 3.333231 -11.815530 -17.314349 0.000000 -0.000000 0.000000 -2.342670 -1.537375 25.881448 3.426383 1.347797 -9.013732 1.912082 -2.117373 0.550667 3.321690 -0.035015 -7.352160 3.192501 0.195427 0.892251 -25.370190 9.162940 2.314483 -52.900594 -1.315318 7.877155 4.056011 -47.194053 9.754029 2.038492 -7.737771 -6.545710 23.035659 -5.281308 0.479106 49.241561 -2.959746 12.051029 -10.518600 36.735021 5.514936 4.892644 4.249386 3.653180 
0.114208 1.152593 0.937134 -98.600126 -8.277351 96.328682 1.910989 0.969160 -31.524982 -8.763275 7.025015 46.476148 3.384453 12.266157 -16.812856 0.000000 -0.000000 0.000000 -1.912675 6.785170 -40.455839 -2.382860 -6.951879 59.949773 3.108843 -10.358659 -21.449204 0.000000 -0.000000 0.000000 -2.689603 -1.373501 28.236008 2.537380 1.252213 -10.959354 1.152525 -2.012744 0.511880 3.469851 0.062052 -10.825767 3.264616 -0.643014 1.663644 -27.987069 6.771762 1.097039 -50.254143 -3.065456 7.530869 6.920732 -44.279250 4.268325 9.049610 -9.612971 -2.954519 24.653729 -3.545939 -0.472678 47.828701 -2.320332 13.398596 -7.892274 35.875123 7.742705 3.277707 5.363811 4.787577 
0.116314 1.152022 0.909051 -99.019948 -9.322888 97.902792 1.372102 -0.207727 -36.998520 -7.254695 9.197133 53.594158 5.339603 13.460122 -20.432219 0.000000 -0.000000 0.000000 -3.618334 6.555228 -44.978022 -1.237764 -6.895459 65.356271 2.212912 -10.181699 -26.687115 0.000000 -0.000000 0.000000 -2.822049 -1.730726 28.431612 2.057946 1.322440 -12.016814 -0.216235 -1.764982 0.276688 4.119859 0.607454 -16.003373 1.693864 -2.335903 5.053561 -31.811451 3.343367 -0.235795 -45.400827 -4.770919 8.838609 10.099585 -42.820334 0.173028 8.265405 -10.960879 0.948993 28.236191 -0.908237 -1.124243 42.175790 -2.029349 15.932188 -5.329565 37.903086 9.271753 2.776994 4.095582 6.663690 
0.113166 1.156678 0.890352 -99.760898 -9.852093 97.469167 1.219647 -0.807673 -38.282693 -6.559771 9.675277 57.193906 5.303514 15.077428 -21.385474 0.000000 -0.000000 0.000000 -3.731820 7.025510 -46.377085 -0.235080 -6.823481 68.749469 1.836482 -11.444398 -27.912190 0.000000 -0.000000 0.000000 -2.782589 -1.464488 28.895533 1.454361 1.236574 -11.136623 -1.074021 -0.999226 -0.460979 3.601648 0.695272 -17.056335 1.622902 -3.159007 3.923389 -31.230875 -0.984441 -0.793168 -44.464170 -8.874011 8.820976 14.130229 -41.994111 -1.726617 9.487750 -11.931954 2.206899 27.851909 2.437117 0.544745 43.201936 1.414983 15.515501 -9.835723 37.912834 9.129532 4.217956 5.823932 7.650963 
0.110087 1.165629 0.885479 -100.366389 -9.966939 96.040033 2.298504 -0.507128 -36.790845 -6.560588 10.645957 58.140874 4.554999 15.105706 -21.100013 0.000000 -0.000000 0.000000 -3.466277 7.025608 -45.004462 0.149433 -7.878947 69.621164 1.665869 -11.292859 -27.418146 0.000000 -0.000000 0.000000 -1.865654 -1.054577 29.826910 0.343164 1.264410 -10.932351 -1.140384 -1.405669 -0.327656 1.103603 0.285601 -17.320677 2.133627 -2.835395 2.472012 -29.122341 -5.671416 0.428857 -42.830977 -11.274176 6.776248 22.309776 -49.964433 -9.650859 7.406883 -11.500034 0.108247 24.634944 6.090617 1.185183 42.752616 3.342970 14.298007 -13.265397 48.046136 9.382240 7.387451 6.134651 8.950768 
0.106427 1.179374 0.893040 -100.248607 -10.301907 95.036857 2.761252 0.934815 -33.857875 -7.616760 9.476119 55.306949 3.505140 13.708266 -18.975649 0.000000 -0.000000 0.000000 -2.849596 5.353965 -42.409145 0.951046 -8.325327 67.596156 1.967043 -10.214463 -25.963769 0.000000 -0.000000 0.000000 -1.959413 -0.638669 29.068910 0.141404 0.966358 -11.570961 -1.239143 -1.420092 0.543713 -0.157654 0.579987 -16.617904 1.793229 -3.531977 3.473790 -25.049384 -8.337125 -0.423621 -40.694529 -14.298582 6.228493 31.415984 -58.665702 -17.262583 8.983311 -12.061659 -3.804032 21.169591 6.997741 -0.898753 41.019265 5.046654 13.810138 -18.733765 60.790484 8.118083 6.895274 7.236250 8.940524 
